<mxfile host="app.diagrams.net" modified="2023-05-20T03:55:42.196Z" agent="Mozilla/5.0 (Windows NT 10.0; WOW64) AppleWebKit/537.36 (KHTML, like Gecko) Chrome/80.0.3987.87 Safari/537.36 SE 2.X MetaSr 1.0" etag="NyR3t8nMBnzn5q12vbJH" version="21.3.2" type="github" pages="3">
  <diagram id="prtHgNgQTEPvFCAcTncT" name="Page-1">
    <mxGraphModel dx="1434" dy="300" grid="0" gridSize="10" guides="1" tooltips="1" connect="1" arrows="1" fold="1" page="0" pageScale="1" pageWidth="827" pageHeight="1169" math="0" shadow="0">
      <root>
        <mxCell id="0" />
        <mxCell id="1" parent="0" />
        <mxCell id="nlEXq3xorcPV3TfT9RAH-10" style="edgeStyle=orthogonalEdgeStyle;rounded=0;orthogonalLoop=1;jettySize=auto;html=1;" edge="1" parent="1" source="nlEXq3xorcPV3TfT9RAH-1" target="nlEXq3xorcPV3TfT9RAH-5">
          <mxGeometry relative="1" as="geometry" />
        </mxCell>
        <mxCell id="nlEXq3xorcPV3TfT9RAH-1" value="登入" style="rounded=0;whiteSpace=wrap;html=1;" vertex="1" parent="1">
          <mxGeometry x="240" y="580" width="120" height="60" as="geometry" />
        </mxCell>
        <mxCell id="nlEXq3xorcPV3TfT9RAH-8" style="edgeStyle=orthogonalEdgeStyle;rounded=0;orthogonalLoop=1;jettySize=auto;html=1;entryX=0;entryY=0.5;entryDx=0;entryDy=0;" edge="1" parent="1" source="nlEXq3xorcPV3TfT9RAH-2" target="nlEXq3xorcPV3TfT9RAH-1">
          <mxGeometry relative="1" as="geometry" />
        </mxCell>
        <mxCell id="nlEXq3xorcPV3TfT9RAH-9" style="edgeStyle=orthogonalEdgeStyle;rounded=0;orthogonalLoop=1;jettySize=auto;html=1;entryX=0;entryY=0.5;entryDx=0;entryDy=0;" edge="1" parent="1" source="nlEXq3xorcPV3TfT9RAH-2" target="nlEXq3xorcPV3TfT9RAH-3">
          <mxGeometry relative="1" as="geometry" />
        </mxCell>
        <mxCell id="nlEXq3xorcPV3TfT9RAH-2" value="开始" style="rounded=1;whiteSpace=wrap;html=1;" vertex="1" parent="1">
          <mxGeometry x="40" y="650" width="120" height="60" as="geometry" />
        </mxCell>
        <mxCell id="nlEXq3xorcPV3TfT9RAH-11" style="edgeStyle=orthogonalEdgeStyle;rounded=0;orthogonalLoop=1;jettySize=auto;html=1;entryX=0;entryY=0.5;entryDx=0;entryDy=0;" edge="1" parent="1" source="nlEXq3xorcPV3TfT9RAH-3" target="nlEXq3xorcPV3TfT9RAH-6">
          <mxGeometry relative="1" as="geometry" />
        </mxCell>
        <mxCell id="nlEXq3xorcPV3TfT9RAH-3" value="注册" style="rounded=0;whiteSpace=wrap;html=1;" vertex="1" parent="1">
          <mxGeometry x="240" y="740" width="120" height="60" as="geometry" />
        </mxCell>
        <mxCell id="nlEXq3xorcPV3TfT9RAH-15" style="edgeStyle=orthogonalEdgeStyle;rounded=0;orthogonalLoop=1;jettySize=auto;html=1;" edge="1" parent="1" source="nlEXq3xorcPV3TfT9RAH-4" target="nlEXq3xorcPV3TfT9RAH-14">
          <mxGeometry relative="1" as="geometry" />
        </mxCell>
        <mxCell id="nlEXq3xorcPV3TfT9RAH-17" value="y" style="edgeLabel;html=1;align=center;verticalAlign=middle;resizable=0;points=[];" vertex="1" connectable="0" parent="nlEXq3xorcPV3TfT9RAH-15">
          <mxGeometry x="-0.2129" relative="1" as="geometry">
            <mxPoint as="offset" />
          </mxGeometry>
        </mxCell>
        <mxCell id="nlEXq3xorcPV3TfT9RAH-19" value="N" style="edgeStyle=orthogonalEdgeStyle;rounded=0;orthogonalLoop=1;jettySize=auto;html=1;" edge="1" parent="1" source="nlEXq3xorcPV3TfT9RAH-4" target="nlEXq3xorcPV3TfT9RAH-18">
          <mxGeometry relative="1" as="geometry" />
        </mxCell>
        <mxCell id="nlEXq3xorcPV3TfT9RAH-4" value="校验信息" style="rhombus;whiteSpace=wrap;html=1;" vertex="1" parent="1">
          <mxGeometry x="570" y="570" width="80" height="80" as="geometry" />
        </mxCell>
        <mxCell id="nlEXq3xorcPV3TfT9RAH-12" style="edgeStyle=orthogonalEdgeStyle;rounded=0;orthogonalLoop=1;jettySize=auto;html=1;exitX=1;exitY=0.5;exitDx=0;exitDy=0;" edge="1" parent="1" source="nlEXq3xorcPV3TfT9RAH-5" target="nlEXq3xorcPV3TfT9RAH-4">
          <mxGeometry relative="1" as="geometry" />
        </mxCell>
        <mxCell id="nlEXq3xorcPV3TfT9RAH-5" value="输入信息" style="rounded=0;whiteSpace=wrap;html=1;" vertex="1" parent="1">
          <mxGeometry x="400" y="580" width="120" height="60" as="geometry" />
        </mxCell>
        <mxCell id="nlEXq3xorcPV3TfT9RAH-13" style="edgeStyle=orthogonalEdgeStyle;rounded=0;orthogonalLoop=1;jettySize=auto;html=1;" edge="1" parent="1" source="nlEXq3xorcPV3TfT9RAH-6" target="nlEXq3xorcPV3TfT9RAH-7">
          <mxGeometry relative="1" as="geometry" />
        </mxCell>
        <mxCell id="nlEXq3xorcPV3TfT9RAH-6" value="注册输入信息" style="rounded=0;whiteSpace=wrap;html=1;" vertex="1" parent="1">
          <mxGeometry x="390" y="740" width="120" height="60" as="geometry" />
        </mxCell>
        <mxCell id="nlEXq3xorcPV3TfT9RAH-16" value="y" style="edgeStyle=orthogonalEdgeStyle;rounded=0;orthogonalLoop=1;jettySize=auto;html=1;entryX=0.417;entryY=1;entryDx=0;entryDy=0;entryPerimeter=0;" edge="1" parent="1" source="nlEXq3xorcPV3TfT9RAH-7" target="nlEXq3xorcPV3TfT9RAH-14">
          <mxGeometry relative="1" as="geometry" />
        </mxCell>
        <mxCell id="nlEXq3xorcPV3TfT9RAH-22" value="N" style="edgeStyle=orthogonalEdgeStyle;rounded=0;orthogonalLoop=1;jettySize=auto;html=1;" edge="1" parent="1" source="nlEXq3xorcPV3TfT9RAH-7" target="nlEXq3xorcPV3TfT9RAH-21">
          <mxGeometry relative="1" as="geometry" />
        </mxCell>
        <mxCell id="nlEXq3xorcPV3TfT9RAH-7" value="是否有效" style="rhombus;whiteSpace=wrap;html=1;" vertex="1" parent="1">
          <mxGeometry x="540" y="730" width="80" height="80" as="geometry" />
        </mxCell>
        <mxCell id="nlEXq3xorcPV3TfT9RAH-14" value="结束" style="rounded=1;whiteSpace=wrap;html=1;" vertex="1" parent="1">
          <mxGeometry x="670" y="660" width="120" height="60" as="geometry" />
        </mxCell>
        <mxCell id="nlEXq3xorcPV3TfT9RAH-20" style="edgeStyle=orthogonalEdgeStyle;rounded=0;orthogonalLoop=1;jettySize=auto;html=1;" edge="1" parent="1" source="nlEXq3xorcPV3TfT9RAH-18">
          <mxGeometry relative="1" as="geometry">
            <mxPoint x="200" y="680" as="targetPoint" />
          </mxGeometry>
        </mxCell>
        <mxCell id="nlEXq3xorcPV3TfT9RAH-18" value="给出错误提示" style="whiteSpace=wrap;html=1;" vertex="1" parent="1">
          <mxGeometry x="550" y="470" width="120" height="60" as="geometry" />
        </mxCell>
        <mxCell id="nlEXq3xorcPV3TfT9RAH-23" style="edgeStyle=orthogonalEdgeStyle;rounded=0;orthogonalLoop=1;jettySize=auto;html=1;" edge="1" parent="1" source="nlEXq3xorcPV3TfT9RAH-21">
          <mxGeometry relative="1" as="geometry">
            <mxPoint x="200" y="680" as="targetPoint" />
          </mxGeometry>
        </mxCell>
        <mxCell id="nlEXq3xorcPV3TfT9RAH-21" value="给出提示" style="whiteSpace=wrap;html=1;" vertex="1" parent="1">
          <mxGeometry x="520" y="850" width="120" height="60" as="geometry" />
        </mxCell>
      </root>
    </mxGraphModel>
  </diagram>
  <diagram id="aoEPTRbqbnUq3gg0sRIi" name="第 2 页">
    <mxGraphModel dx="1434" dy="700" grid="0" gridSize="10" guides="1" tooltips="1" connect="1" arrows="1" fold="1" page="1" pageScale="1" pageWidth="827" pageHeight="1169" math="0" shadow="0">
      <root>
        <mxCell id="0" />
        <mxCell id="1" parent="0" />
        <mxCell id="KXwZBiOnmvePTWnMj12j-9" style="edgeStyle=orthogonalEdgeStyle;rounded=0;orthogonalLoop=1;jettySize=auto;html=1;entryX=1;entryY=0;entryDx=0;entryDy=0;" parent="1" source="JM5I8A7M0roLsciMcnTJ-1" target="JM5I8A7M0roLsciMcnTJ-7" edge="1">
          <mxGeometry relative="1" as="geometry" />
        </mxCell>
        <mxCell id="KXwZBiOnmvePTWnMj12j-10" style="edgeStyle=orthogonalEdgeStyle;rounded=0;orthogonalLoop=1;jettySize=auto;html=1;" parent="1" source="JM5I8A7M0roLsciMcnTJ-1" target="JM5I8A7M0roLsciMcnTJ-23" edge="1">
          <mxGeometry relative="1" as="geometry" />
        </mxCell>
        <mxCell id="KXwZBiOnmvePTWnMj12j-11" style="edgeStyle=orthogonalEdgeStyle;rounded=0;orthogonalLoop=1;jettySize=auto;html=1;entryX=0.5;entryY=0;entryDx=0;entryDy=0;" parent="1" source="JM5I8A7M0roLsciMcnTJ-1" target="JM5I8A7M0roLsciMcnTJ-24" edge="1">
          <mxGeometry relative="1" as="geometry" />
        </mxCell>
        <mxCell id="KXwZBiOnmvePTWnMj12j-12" style="edgeStyle=orthogonalEdgeStyle;rounded=0;orthogonalLoop=1;jettySize=auto;html=1;exitX=0.5;exitY=1;exitDx=0;exitDy=0;entryX=0.5;entryY=0;entryDx=0;entryDy=0;" parent="1" source="JM5I8A7M0roLsciMcnTJ-1" target="JM5I8A7M0roLsciMcnTJ-25" edge="1">
          <mxGeometry relative="1" as="geometry" />
        </mxCell>
        <mxCell id="KXwZBiOnmvePTWnMj12j-13" style="edgeStyle=orthogonalEdgeStyle;rounded=0;orthogonalLoop=1;jettySize=auto;html=1;entryX=0.5;entryY=0;entryDx=0;entryDy=0;" parent="1" source="JM5I8A7M0roLsciMcnTJ-1" target="JM5I8A7M0roLsciMcnTJ-26" edge="1">
          <mxGeometry relative="1" as="geometry" />
        </mxCell>
        <mxCell id="KXwZBiOnmvePTWnMj12j-14" style="edgeStyle=orthogonalEdgeStyle;rounded=0;orthogonalLoop=1;jettySize=auto;html=1;exitX=0.5;exitY=1;exitDx=0;exitDy=0;" parent="1" source="JM5I8A7M0roLsciMcnTJ-1" target="JM5I8A7M0roLsciMcnTJ-27" edge="1">
          <mxGeometry relative="1" as="geometry" />
        </mxCell>
        <mxCell id="KXwZBiOnmvePTWnMj12j-15" style="edgeStyle=orthogonalEdgeStyle;rounded=0;orthogonalLoop=1;jettySize=auto;html=1;entryX=0.75;entryY=0;entryDx=0;entryDy=0;" parent="1" source="JM5I8A7M0roLsciMcnTJ-1" target="JM5I8A7M0roLsciMcnTJ-29" edge="1">
          <mxGeometry relative="1" as="geometry" />
        </mxCell>
        <mxCell id="KXwZBiOnmvePTWnMj12j-16" style="edgeStyle=orthogonalEdgeStyle;rounded=0;orthogonalLoop=1;jettySize=auto;html=1;" parent="1" source="JM5I8A7M0roLsciMcnTJ-1" target="JM5I8A7M0roLsciMcnTJ-30" edge="1">
          <mxGeometry relative="1" as="geometry" />
        </mxCell>
        <mxCell id="KXwZBiOnmvePTWnMj12j-17" style="edgeStyle=orthogonalEdgeStyle;rounded=0;orthogonalLoop=1;jettySize=auto;html=1;entryX=0.5;entryY=0;entryDx=0;entryDy=0;" parent="1" source="JM5I8A7M0roLsciMcnTJ-1" target="JM5I8A7M0roLsciMcnTJ-32" edge="1">
          <mxGeometry relative="1" as="geometry" />
        </mxCell>
        <mxCell id="KXwZBiOnmvePTWnMj12j-18" style="edgeStyle=orthogonalEdgeStyle;rounded=0;orthogonalLoop=1;jettySize=auto;html=1;entryX=0.5;entryY=0;entryDx=0;entryDy=0;" parent="1" source="JM5I8A7M0roLsciMcnTJ-1" target="KXwZBiOnmvePTWnMj12j-5" edge="1">
          <mxGeometry relative="1" as="geometry" />
        </mxCell>
        <mxCell id="JM5I8A7M0roLsciMcnTJ-1" value="桂林传统村落数字化平台" style="rounded=0;whiteSpace=wrap;html=1;" parent="1" vertex="1">
          <mxGeometry x="82" y="188" width="360" height="47" as="geometry" />
        </mxCell>
        <mxCell id="JM5I8A7M0roLsciMcnTJ-7" value="资讯管理" style="rounded=0;whiteSpace=wrap;html=1;" parent="1" vertex="1">
          <mxGeometry x="60" y="330" width="30" height="90" as="geometry" />
        </mxCell>
        <mxCell id="JM5I8A7M0roLsciMcnTJ-23" value="区域分类" style="rounded=0;whiteSpace=wrap;html=1;" parent="1" vertex="1">
          <mxGeometry x="100" y="330" width="30" height="90" as="geometry" />
        </mxCell>
        <mxCell id="JM5I8A7M0roLsciMcnTJ-24" value="全国特刊管理" style="rounded=0;whiteSpace=wrap;html=1;" parent="1" vertex="1">
          <mxGeometry x="140" y="330" width="30" height="90" as="geometry" />
        </mxCell>
        <mxCell id="JM5I8A7M0roLsciMcnTJ-25" value="注册用户管理" style="rounded=0;whiteSpace=wrap;html=1;" parent="1" vertex="1">
          <mxGeometry x="180" y="330" width="30" height="90" as="geometry" />
        </mxCell>
        <mxCell id="JM5I8A7M0roLsciMcnTJ-26" value="村落信息" style="rounded=0;whiteSpace=wrap;html=1;" parent="1" vertex="1">
          <mxGeometry x="220" y="330" width="30" height="90" as="geometry" />
        </mxCell>
        <mxCell id="JM5I8A7M0roLsciMcnTJ-27" value="评论信息管理" style="rounded=0;whiteSpace=wrap;html=1;" parent="1" vertex="1">
          <mxGeometry x="260" y="330" width="30" height="90" as="geometry" />
        </mxCell>
        <mxCell id="JM5I8A7M0roLsciMcnTJ-29" value="留言反馈管理" style="rounded=0;whiteSpace=wrap;html=1;" parent="1" vertex="1">
          <mxGeometry x="300" y="330" width="30" height="90" as="geometry" />
        </mxCell>
        <mxCell id="JM5I8A7M0roLsciMcnTJ-30" value="数据信息统计" style="rounded=0;whiteSpace=wrap;html=1;" parent="1" vertex="1">
          <mxGeometry x="340" y="330" width="30" height="90" as="geometry" />
        </mxCell>
        <mxCell id="JM5I8A7M0roLsciMcnTJ-32" value="个人中心" style="rounded=0;whiteSpace=wrap;html=1;" parent="1" vertex="1">
          <mxGeometry x="384" y="330" width="30" height="90" as="geometry" />
        </mxCell>
        <mxCell id="KXwZBiOnmvePTWnMj12j-5" value="系统页面" style="rounded=0;whiteSpace=wrap;html=1;" parent="1" vertex="1">
          <mxGeometry x="432" y="330" width="30" height="90" as="geometry" />
        </mxCell>
      </root>
    </mxGraphModel>
  </diagram>
  <diagram id="0qLTC1y07tjjU1SHMl5R" name="第 3 页">
    <mxGraphModel dx="2234" dy="1100" grid="0" gridSize="10" guides="1" tooltips="1" connect="1" arrows="1" fold="1" page="0" pageScale="1" pageWidth="827" pageHeight="1169" math="0" shadow="0">
      <root>
        <mxCell id="0" />
        <mxCell id="1" parent="0" />
        <mxCell id="gw01wjJVd16RhTTgSZ-A-11" style="edgeStyle=orthogonalEdgeStyle;rounded=0;orthogonalLoop=1;jettySize=auto;html=1;entryX=0;entryY=0.5;entryDx=0;entryDy=0;" edge="1" parent="1" source="gw01wjJVd16RhTTgSZ-A-1" target="gw01wjJVd16RhTTgSZ-A-3">
          <mxGeometry relative="1" as="geometry" />
        </mxCell>
        <mxCell id="gw01wjJVd16RhTTgSZ-A-12" style="edgeStyle=orthogonalEdgeStyle;rounded=0;orthogonalLoop=1;jettySize=auto;html=1;" edge="1" parent="1" source="gw01wjJVd16RhTTgSZ-A-1" target="gw01wjJVd16RhTTgSZ-A-4">
          <mxGeometry relative="1" as="geometry" />
        </mxCell>
        <mxCell id="gw01wjJVd16RhTTgSZ-A-13" style="edgeStyle=orthogonalEdgeStyle;rounded=0;orthogonalLoop=1;jettySize=auto;html=1;" edge="1" parent="1" source="gw01wjJVd16RhTTgSZ-A-1" target="gw01wjJVd16RhTTgSZ-A-5">
          <mxGeometry relative="1" as="geometry" />
        </mxCell>
        <mxCell id="gw01wjJVd16RhTTgSZ-A-14" style="edgeStyle=orthogonalEdgeStyle;rounded=0;orthogonalLoop=1;jettySize=auto;html=1;entryX=0;entryY=0.5;entryDx=0;entryDy=0;" edge="1" parent="1" source="gw01wjJVd16RhTTgSZ-A-1" target="gw01wjJVd16RhTTgSZ-A-6">
          <mxGeometry relative="1" as="geometry" />
        </mxCell>
        <mxCell id="gw01wjJVd16RhTTgSZ-A-1" value="注册用户管理" style="rounded=0;whiteSpace=wrap;html=1;" vertex="1" parent="1">
          <mxGeometry x="-309" y="-150" width="120" height="60" as="geometry" />
        </mxCell>
        <mxCell id="gw01wjJVd16RhTTgSZ-A-10" style="edgeStyle=orthogonalEdgeStyle;rounded=0;orthogonalLoop=1;jettySize=auto;html=1;" edge="1" parent="1" source="gw01wjJVd16RhTTgSZ-A-2" target="gw01wjJVd16RhTTgSZ-A-1">
          <mxGeometry relative="1" as="geometry" />
        </mxCell>
        <mxCell id="gw01wjJVd16RhTTgSZ-A-2" value="开始" style="rounded=1;whiteSpace=wrap;html=1;" vertex="1" parent="1">
          <mxGeometry x="-462" y="-150" width="120" height="60" as="geometry" />
        </mxCell>
        <mxCell id="gw01wjJVd16RhTTgSZ-A-16" style="edgeStyle=orthogonalEdgeStyle;rounded=0;orthogonalLoop=1;jettySize=auto;html=1;" edge="1" parent="1" source="gw01wjJVd16RhTTgSZ-A-3" target="gw01wjJVd16RhTTgSZ-A-15">
          <mxGeometry relative="1" as="geometry" />
        </mxCell>
        <mxCell id="gw01wjJVd16RhTTgSZ-A-3" value="查询" style="rounded=0;whiteSpace=wrap;html=1;" vertex="1" parent="1">
          <mxGeometry x="-116" y="-302" width="120" height="60" as="geometry" />
        </mxCell>
        <mxCell id="gw01wjJVd16RhTTgSZ-A-17" style="edgeStyle=orthogonalEdgeStyle;rounded=0;orthogonalLoop=1;jettySize=auto;html=1;" edge="1" parent="1" source="gw01wjJVd16RhTTgSZ-A-4" target="gw01wjJVd16RhTTgSZ-A-15">
          <mxGeometry relative="1" as="geometry" />
        </mxCell>
        <mxCell id="gw01wjJVd16RhTTgSZ-A-4" value="停用" style="rounded=0;whiteSpace=wrap;html=1;" vertex="1" parent="1">
          <mxGeometry x="-116" y="-212" width="120" height="60" as="geometry" />
        </mxCell>
        <mxCell id="gw01wjJVd16RhTTgSZ-A-19" style="edgeStyle=orthogonalEdgeStyle;rounded=0;orthogonalLoop=1;jettySize=auto;html=1;entryX=0;entryY=0.5;entryDx=0;entryDy=0;" edge="1" parent="1" source="gw01wjJVd16RhTTgSZ-A-5" target="gw01wjJVd16RhTTgSZ-A-15">
          <mxGeometry relative="1" as="geometry" />
        </mxCell>
        <mxCell id="gw01wjJVd16RhTTgSZ-A-5" value="管理" style="rounded=0;whiteSpace=wrap;html=1;" vertex="1" parent="1">
          <mxGeometry x="-116" y="-106" width="120" height="60" as="geometry" />
        </mxCell>
        <mxCell id="gw01wjJVd16RhTTgSZ-A-20" style="edgeStyle=orthogonalEdgeStyle;rounded=0;orthogonalLoop=1;jettySize=auto;html=1;" edge="1" parent="1" source="gw01wjJVd16RhTTgSZ-A-6" target="gw01wjJVd16RhTTgSZ-A-15">
          <mxGeometry relative="1" as="geometry" />
        </mxCell>
        <mxCell id="gw01wjJVd16RhTTgSZ-A-6" value="删除" style="rounded=0;whiteSpace=wrap;html=1;" vertex="1" parent="1">
          <mxGeometry x="-118" y="-28" width="120" height="60" as="geometry" />
        </mxCell>
        <mxCell id="gw01wjJVd16RhTTgSZ-A-22" style="edgeStyle=orthogonalEdgeStyle;rounded=0;orthogonalLoop=1;jettySize=auto;html=1;" edge="1" parent="1" source="gw01wjJVd16RhTTgSZ-A-9" target="gw01wjJVd16RhTTgSZ-A-1">
          <mxGeometry relative="1" as="geometry">
            <Array as="points">
              <mxPoint x="237" y="-325" />
              <mxPoint x="-258" y="-325" />
            </Array>
          </mxGeometry>
        </mxCell>
        <mxCell id="gw01wjJVd16RhTTgSZ-A-25" value="" style="edgeStyle=orthogonalEdgeStyle;rounded=0;orthogonalLoop=1;jettySize=auto;html=1;" edge="1" parent="1" source="gw01wjJVd16RhTTgSZ-A-9" target="gw01wjJVd16RhTTgSZ-A-24">
          <mxGeometry relative="1" as="geometry" />
        </mxCell>
        <mxCell id="gw01wjJVd16RhTTgSZ-A-9" value="是否成功" style="rhombus;whiteSpace=wrap;html=1;" vertex="1" parent="1">
          <mxGeometry x="192" y="-166" width="80" height="80" as="geometry" />
        </mxCell>
        <mxCell id="gw01wjJVd16RhTTgSZ-A-23" style="edgeStyle=orthogonalEdgeStyle;rounded=0;orthogonalLoop=1;jettySize=auto;html=1;" edge="1" parent="1" source="gw01wjJVd16RhTTgSZ-A-15" target="gw01wjJVd16RhTTgSZ-A-9">
          <mxGeometry relative="1" as="geometry" />
        </mxCell>
        <mxCell id="gw01wjJVd16RhTTgSZ-A-15" value="修改数据表" style="rounded=0;whiteSpace=wrap;html=1;" vertex="1" parent="1">
          <mxGeometry x="52" y="-158" width="120" height="60" as="geometry" />
        </mxCell>
        <mxCell id="gw01wjJVd16RhTTgSZ-A-24" value="结束" style="rounded=1;whiteSpace=wrap;html=1;" vertex="1" parent="1">
          <mxGeometry x="332" y="-156" width="120" height="60" as="geometry" />
        </mxCell>
      </root>
    </mxGraphModel>
  </diagram>
</mxfile>
